<svg xmlns="http://www.w3.org/2000/svg" width="89" height="18" viewBox="0 0 89 18" fill="none"><path d="M4.49024 13.6843C3.60224 13.6843 2.82224 13.4803 2.15024 13.0723C1.49024 12.6643 0.974242 12.1063 0.602242 11.3983C0.242242 10.6903 0.0622422 9.88626 0.0622422 8.98626C0.0622422 8.08626 0.248242 7.28826 0.620242 6.59226C0.992242 5.88426 1.50824 5.33226 2.16824 4.93626C2.82824 4.52826 3.60824 4.32426 4.50824 4.32426C5.24024 4.32426 5.88824 4.47426 6.45224 4.77426C7.01624 5.07426 7.45424 5.49426 7.76624 6.03426V0.508261H9.27824V13.4683H7.91024L7.76624 11.9923C7.47824 12.4243 7.06424 12.8143 6.52424 13.1623C5.98424 13.5103 5.30624 13.6843 4.49024 13.6843ZM4.65224 12.3703C5.25224 12.3703 5.78024 12.2323 6.23624 11.9563C6.70424 11.6683 7.06424 11.2723 7.31624 10.7683C7.58024 10.2643 7.71224 9.67626 7.71224 9.00426C7.71224 8.33226 7.58024 7.74426 7.31624 7.24026C7.06424 6.73626 6.70424 6.34626 6.23624 6.07026C5.78024 5.78226 5.25224 5.63826 4.65224 5.63826C4.06424 5.63826 3.53624 5.78226 3.06824 6.07026C2.61224 6.34626 2.25224 6.73626 1.98824 7.24026C1.73624 7.74426 1.61024 8.33226 1.61024 9.00426C1.61024 9.67626 1.73624 10.2643 1.98824 10.7683C2.25224 11.2723 2.61224 11.6683 3.06824 11.9563C3.53624 12.2323 4.06424 12.3703 4.65224 12.3703ZM15.577 13.6843C14.725 13.6843 13.969 13.4923 13.309 13.1083C12.649 12.7123 12.127 12.1663 11.743 11.4703C11.371 10.7743 11.185 9.95226 11.185 9.00426C11.185 8.06826 11.371 7.25226 11.743 6.55626C12.115 5.84826 12.631 5.30226 13.291 4.91826C13.963 4.52226 14.737 4.32426 15.613 4.32426C16.477 4.32426 17.221 4.52226 17.845 4.91826C18.481 5.30226 18.967 5.81226 19.303 6.44826C19.639 7.08426 19.807 7.76826 19.807 8.50026C19.807 8.63226 19.801 8.76426 19.789 8.89626C19.789 9.02826 19.789 9.17826 19.789 9.34626H12.679C12.715 10.0303 12.871 10.6003 13.147 11.0563C13.435 11.5003 13.789 11.8363 14.209 12.0643C14.641 12.2923 15.097 12.4063 15.577 12.4063C16.201 12.4063 16.723 12.2623 17.143 11.9743C17.563 11.6863 17.869 11.2963 18.061 10.8043H19.555C19.315 11.6323 18.853 12.3223 18.169 12.8743C17.497 13.4143 16.633 13.6843 15.577 13.6843ZM15.577 5.60226C14.857 5.60226 14.215 5.82426 13.651 6.26826C13.099 6.70026 12.781 7.33626 12.697 8.17626H18.313C18.277 7.37226 18.001 6.74226 17.485 6.28626C16.969 5.83026 16.333 5.60226 15.577 5.60226ZM23.8535 13.4683L20.4695 4.54026H22.0535L24.7355 12.0103L27.4355 4.54026H28.9835L25.5995 13.4683H23.8535ZM34.0431 13.6843C33.1911 13.6843 32.4351 13.4923 31.7751 13.1083C31.1151 12.7123 30.5931 12.1663 30.2091 11.4703C29.8371 10.7743 29.6511 9.95226 29.6511 9.00426C29.6511 8.06826 29.8371 7.25226 30.2091 6.55626C30.5811 5.84826 31.0971 5.30226 31.7571 4.91826C32.4291 4.52226 33.2031 4.32426 34.0791 4.32426C34.9431 4.32426 35.6871 4.52226 36.3111 4.91826C36.9471 5.30226 37.4331 5.81226 37.7691 6.44826C38.1051 7.08426 38.2731 7.76826 38.2731 8.50026C38.2731 8.63226 38.2671 8.76426 38.2551 8.89626C38.2551 9.02826 38.2551 9.17826 38.2551 9.34626H31.1451C31.1811 10.0303 31.3371 10.6003 31.6131 11.0563C31.9011 11.5003 32.2551 11.8363 32.6751 12.0643C33.1071 12.2923 33.5631 12.4063 34.0431 12.4063C34.6671 12.4063 35.1891 12.2623 35.6091 11.9743C36.0291 11.6863 36.3351 11.2963 36.5271 10.8043H38.0211C37.7811 11.6323 37.3191 12.3223 36.6351 12.8743C35.9631 13.4143 35.0991 13.6843 34.0431 13.6843ZM34.0431 5.60226C33.3231 5.60226 32.6811 5.82426 32.1171 6.26826C31.5651 6.70026 31.2471 7.33626 31.1631 8.17626H36.7791C36.7431 7.37226 36.4671 6.74226 35.9511 6.28626C35.4351 5.83026 34.7991 5.60226 34.0431 5.60226ZM40.0972 13.4683V0.508261H41.6092V13.4683H40.0972ZM47.9754 13.6843C47.1354 13.6843 46.3794 13.4923 45.7074 13.1083C45.0354 12.7243 44.5014 12.1843 44.1054 11.4883C43.7214 10.7803 43.5294 9.95226 43.5294 9.00426C43.5294 8.05626 43.7274 7.23426 44.1234 6.53826C44.5194 5.83026 45.0534 5.28426 45.7254 4.90026C46.4094 4.51626 47.1714 4.32426 48.0114 4.32426C48.8514 4.32426 49.6074 4.51626 50.2794 4.90026C50.9514 5.28426 51.4794 5.83026 51.8634 6.53826C52.2594 7.23426 52.4574 8.05626 52.4574 9.00426C52.4574 9.95226 52.2594 10.7803 51.8634 11.4883C51.4674 12.1843 50.9274 12.7243 50.2434 13.1083C49.5714 13.4923 48.8154 13.6843 47.9754 13.6843ZM47.9754 12.3883C48.4914 12.3883 48.9714 12.2623 49.4154 12.0103C49.8594 11.7583 50.2194 11.3803 50.4954 10.8763C50.7714 10.3723 50.9094 9.74826 50.9094 9.00426C50.9094 8.26026 50.7714 7.63626 50.4954 7.13226C50.2314 6.62826 49.8774 6.25026 49.4334 5.99826C48.9894 5.74626 48.5154 5.62026 48.0114 5.62026C47.4954 5.62026 47.0154 5.74626 46.5714 5.99826C46.1274 6.25026 45.7674 6.62826 45.4914 7.13226C45.2154 7.63626 45.0774 8.26026 45.0774 9.00426C45.0774 9.74826 45.2154 10.3723 45.4914 10.8763C45.7674 11.3803 46.1214 11.7583 46.5534 12.0103C46.9974 12.2623 47.4714 12.3883 47.9754 12.3883ZM54.3798 17.4283V4.54026H55.7478L55.8918 6.01626C56.1798 5.58426 56.5878 5.19426 57.1158 4.84626C57.6558 4.49826 58.3398 4.32426 59.1678 4.32426C60.0558 4.32426 60.8298 4.52826 61.4898 4.93626C62.1498 5.34426 62.6598 5.90226 63.0198 6.61026C63.3918 7.31826 63.5778 8.12226 63.5778 9.02226C63.5778 9.92226 63.3918 10.7263 63.0198 11.4343C62.6598 12.1303 62.1438 12.6823 61.4718 13.0903C60.8118 13.4863 60.0378 13.6843 59.1498 13.6843C58.4178 13.6843 57.7638 13.5343 57.1878 13.2343C56.6238 12.9343 56.1918 12.5143 55.8918 11.9743V17.4283H54.3798ZM58.9878 12.3703C59.5878 12.3703 60.1158 12.2323 60.5718 11.9563C61.0278 11.6683 61.3878 11.2723 61.6518 10.7683C61.9158 10.2643 62.0478 9.67626 62.0478 9.00426C62.0478 8.33226 61.9158 7.74426 61.6518 7.24026C61.3878 6.73626 61.0278 6.34626 60.5718 6.07026C60.1158 5.78226 59.5878 5.63826 58.9878 5.63826C58.3878 5.63826 57.8598 5.78226 57.4038 6.07026C56.9478 6.34626 56.5878 6.73626 56.3238 7.24026C56.0598 7.74426 55.9278 8.33226 55.9278 9.00426C55.9278 9.67626 56.0598 10.2643 56.3238 10.7683C56.5878 11.2723 56.9478 11.6683 57.4038 11.9563C57.8598 12.2323 58.3878 12.3703 58.9878 12.3703ZM69.5165 13.6843C68.6645 13.6843 67.9085 13.4923 67.2485 13.1083C66.5885 12.7123 66.0665 12.1663 65.6825 11.4703C65.3105 10.7743 65.1245 9.95226 65.1245 9.00426C65.1245 8.06826 65.3105 7.25226 65.6825 6.55626C66.0545 5.84826 66.5705 5.30226 67.2305 4.91826C67.9025 4.52226 68.6765 4.32426 69.5525 4.32426C70.4165 4.32426 71.1605 4.52226 71.7845 4.91826C72.4205 5.30226 72.9065 5.81226 73.2425 6.44826C73.5785 7.08426 73.7465 7.76826 73.7465 8.50026C73.7465 8.63226 73.7405 8.76426 73.7285 8.89626C73.7285 9.02826 73.7285 9.17826 73.7285 9.34626H66.6185C66.6545 10.0303 66.8105 10.6003 67.0865 11.0563C67.3745 11.5003 67.7285 11.8363 68.1485 12.0643C68.5805 12.2923 69.0365 12.4063 69.5165 12.4063C70.1405 12.4063 70.6625 12.2623 71.0825 11.9743C71.5025 11.6863 71.8085 11.2963 72.0005 10.8043H73.4945C73.2545 11.6323 72.7925 12.3223 72.1085 12.8743C71.4365 13.4143 70.5725 13.6843 69.5165 13.6843ZM69.5165 5.60226C68.7965 5.60226 68.1545 5.82426 67.5905 6.26826C67.0385 6.70026 66.7205 7.33626 66.6365 8.17626H72.2525C72.2165 7.37226 71.9405 6.74226 71.4245 6.28626C70.9085 5.83026 70.2725 5.60226 69.5165 5.60226ZM75.5706 13.4683V4.54026H76.9386L77.0646 6.25026C77.3406 5.66226 77.7606 5.19426 78.3246 4.84626C78.8886 4.49826 79.5846 4.32426 80.4126 4.32426V5.90826H79.9986C79.4706 5.90826 78.9846 6.00426 78.5406 6.19626C78.0966 6.37626 77.7426 6.68826 77.4786 7.13226C77.2146 7.57626 77.0826 8.18826 77.0826 8.96826V13.4683H75.5706ZM85.3496 13.6843C84.2816 13.6843 83.3936 13.4143 82.6856 12.8743C81.9776 12.3343 81.5636 11.6023 81.4436 10.6783H82.9916C83.0876 11.1463 83.3336 11.5543 83.7296 11.9023C84.1376 12.2383 84.6836 12.4063 85.3676 12.4063C86.0036 12.4063 86.4716 12.2743 86.7716 12.0103C87.0716 11.7343 87.2216 11.4103 87.2216 11.0383C87.2216 10.4983 87.0236 10.1383 86.6276 9.95826C86.2436 9.77826 85.6976 9.61626 84.9896 9.47226C84.5096 9.37626 84.0296 9.23826 83.5496 9.05826C83.0696 8.87826 82.6676 8.62626 82.3436 8.30226C82.0196 7.96626 81.8576 7.52826 81.8576 6.98826C81.8576 6.20826 82.1456 5.57226 82.7216 5.08026C83.3096 4.57626 84.1016 4.32426 85.0976 4.32426C86.0456 4.32426 86.8196 4.56426 87.4196 5.04426C88.0316 5.51226 88.3856 6.18426 88.4816 7.06026H86.9876C86.9276 6.60426 86.7296 6.25026 86.3936 5.99826C86.0696 5.73426 85.6316 5.60226 85.0796 5.60226C84.5396 5.60226 84.1196 5.71626 83.8196 5.94426C83.5316 6.17226 83.3876 6.47226 83.3876 6.84426C83.3876 7.20426 83.5736 7.48626 83.9456 7.69026C84.3296 7.89426 84.8456 8.06826 85.4936 8.21226C86.0456 8.33226 86.5676 8.48226 87.0596 8.66226C87.5636 8.83026 87.9716 9.08826 88.2836 9.43626C88.6076 9.77226 88.7696 10.2643 88.7696 10.9123C88.7816 11.7163 88.4756 12.3823 87.8516 12.9103C87.2396 13.4263 86.4056 13.6843 85.3496 13.6843Z" fill="currentColor"></path></svg>